<mxfile host="app.diagrams.net" agent="Mozilla/5.0 (Windows NT 10.0; Win64; x64; rv:132.0) Gecko/20100101 Firefox/132.0" version="24.8.4">
  <diagram name="PÃ¡gina-1" id="2UFubnlOPNcLVtzOg3cz">
    <mxGraphModel dx="1105" dy="565" grid="1" gridSize="10" guides="1" tooltips="1" connect="1" arrows="1" fold="1" page="1" pageScale="1" pageWidth="827" pageHeight="1169" math="0" shadow="0">
      <root>
        <mxCell id="0" />
        <mxCell id="1" parent="0" />
        <mxCell id="4KdWAY72Oj23wz-Gb6Jc-74" value="Ship" style="swimlane;fontStyle=1;align=center;verticalAlign=top;childLayout=stackLayout;horizontal=1;startSize=26;horizontalStack=0;resizeParent=1;resizeParentMax=0;resizeLast=0;collapsible=1;marginBottom=0;whiteSpace=wrap;html=1;" vertex="1" parent="1">
          <mxGeometry x="334" y="320" width="160" height="134" as="geometry" />
        </mxCell>
        <mxCell id="4KdWAY72Oj23wz-Gb6Jc-75" value="&lt;div&gt;+ name&lt;/div&gt;&lt;div&gt;+ number of anchors&lt;br&gt;&lt;/div&gt;&lt;div&gt;+ material&lt;/div&gt;&lt;div&gt;+ lenght&lt;br&gt;&lt;/div&gt;" style="text;strokeColor=none;fillColor=none;align=left;verticalAlign=top;spacingLeft=4;spacingRight=4;overflow=hidden;rotatable=0;points=[[0,0.5],[1,0.5]];portConstraint=eastwest;whiteSpace=wrap;html=1;" vertex="1" parent="4KdWAY72Oj23wz-Gb6Jc-74">
          <mxGeometry y="26" width="160" height="74" as="geometry" />
        </mxCell>
        <mxCell id="4KdWAY72Oj23wz-Gb6Jc-76" value="" style="line;strokeWidth=1;fillColor=none;align=left;verticalAlign=middle;spacingTop=-1;spacingLeft=3;spacingRight=3;rotatable=0;labelPosition=right;points=[];portConstraint=eastwest;strokeColor=inherit;" vertex="1" parent="4KdWAY72Oj23wz-Gb6Jc-74">
          <mxGeometry y="100" width="160" height="8" as="geometry" />
        </mxCell>
        <mxCell id="4KdWAY72Oj23wz-Gb6Jc-77" value="- no methods" style="text;strokeColor=none;fillColor=none;align=left;verticalAlign=top;spacingLeft=4;spacingRight=4;overflow=hidden;rotatable=0;points=[[0,0.5],[1,0.5]];portConstraint=eastwest;whiteSpace=wrap;html=1;" vertex="1" parent="4KdWAY72Oj23wz-Gb6Jc-74">
          <mxGeometry y="108" width="160" height="26" as="geometry" />
        </mxCell>
        <mxCell id="4KdWAY72Oj23wz-Gb6Jc-78" value="Container ship" style="swimlane;fontStyle=1;align=center;verticalAlign=top;childLayout=stackLayout;horizontal=1;startSize=26;horizontalStack=0;resizeParent=1;resizeParentMax=0;resizeLast=0;collapsible=1;marginBottom=0;whiteSpace=wrap;html=1;" vertex="1" parent="1">
          <mxGeometry y="585" width="160" height="94" as="geometry" />
        </mxCell>
        <mxCell id="4KdWAY72Oj23wz-Gb6Jc-79" value="&lt;div&gt;+ capacity in TEU&lt;/div&gt;&lt;div&gt;&lt;br&gt;&lt;/div&gt;" style="text;strokeColor=none;fillColor=none;align=left;verticalAlign=top;spacingLeft=4;spacingRight=4;overflow=hidden;rotatable=0;points=[[0,0.5],[1,0.5]];portConstraint=eastwest;whiteSpace=wrap;html=1;" vertex="1" parent="4KdWAY72Oj23wz-Gb6Jc-78">
          <mxGeometry y="26" width="160" height="34" as="geometry" />
        </mxCell>
        <mxCell id="4KdWAY72Oj23wz-Gb6Jc-80" value="" style="line;strokeWidth=1;fillColor=none;align=left;verticalAlign=middle;spacingTop=-1;spacingLeft=3;spacingRight=3;rotatable=0;labelPosition=right;points=[];portConstraint=eastwest;strokeColor=inherit;" vertex="1" parent="4KdWAY72Oj23wz-Gb6Jc-78">
          <mxGeometry y="60" width="160" height="8" as="geometry" />
        </mxCell>
        <mxCell id="4KdWAY72Oj23wz-Gb6Jc-81" value="- no methods" style="text;strokeColor=none;fillColor=none;align=left;verticalAlign=top;spacingLeft=4;spacingRight=4;overflow=hidden;rotatable=0;points=[[0,0.5],[1,0.5]];portConstraint=eastwest;whiteSpace=wrap;html=1;" vertex="1" parent="4KdWAY72Oj23wz-Gb6Jc-78">
          <mxGeometry y="68" width="160" height="26" as="geometry" />
        </mxCell>
        <mxCell id="4KdWAY72Oj23wz-Gb6Jc-91" style="edgeStyle=orthogonalEdgeStyle;rounded=0;orthogonalLoop=1;jettySize=auto;html=1;entryX=0.5;entryY=0;entryDx=0;entryDy=0;endArrow=none;endFill=0;" edge="1" parent="1" source="4KdWAY72Oj23wz-Gb6Jc-82" target="4KdWAY72Oj23wz-Gb6Jc-78">
          <mxGeometry relative="1" as="geometry">
            <mxPoint x="290" y="540" as="targetPoint" />
          </mxGeometry>
        </mxCell>
        <mxCell id="4KdWAY72Oj23wz-Gb6Jc-92" style="edgeStyle=orthogonalEdgeStyle;rounded=0;orthogonalLoop=1;jettySize=auto;html=1;entryX=0.5;entryY=0;entryDx=0;entryDy=0;endArrow=none;endFill=0;" edge="1" parent="1" source="4KdWAY72Oj23wz-Gb6Jc-82" target="4KdWAY72Oj23wz-Gb6Jc-95">
          <mxGeometry relative="1" as="geometry">
            <mxPoint x="330" y="560" as="targetPoint" />
            <Array as="points">
              <mxPoint x="414" y="540" />
              <mxPoint x="310" y="540" />
            </Array>
          </mxGeometry>
        </mxCell>
        <mxCell id="4KdWAY72Oj23wz-Gb6Jc-93" style="edgeStyle=orthogonalEdgeStyle;rounded=0;orthogonalLoop=1;jettySize=auto;html=1;entryX=0.5;entryY=0;entryDx=0;entryDy=0;endArrow=none;endFill=0;" edge="1" parent="1" source="4KdWAY72Oj23wz-Gb6Jc-82" target="4KdWAY72Oj23wz-Gb6Jc-87">
          <mxGeometry relative="1" as="geometry">
            <mxPoint x="490" y="520" as="targetPoint" />
          </mxGeometry>
        </mxCell>
        <mxCell id="4KdWAY72Oj23wz-Gb6Jc-94" style="edgeStyle=orthogonalEdgeStyle;rounded=0;orthogonalLoop=1;jettySize=auto;html=1;entryX=0.5;entryY=0;entryDx=0;entryDy=0;endArrow=none;endFill=0;" edge="1" parent="1" source="4KdWAY72Oj23wz-Gb6Jc-82" target="4KdWAY72Oj23wz-Gb6Jc-99">
          <mxGeometry relative="1" as="geometry">
            <mxPoint x="460" y="570" as="targetPoint" />
            <Array as="points">
              <mxPoint x="414" y="540" />
              <mxPoint x="520" y="540" />
            </Array>
          </mxGeometry>
        </mxCell>
        <mxCell id="4KdWAY72Oj23wz-Gb6Jc-82" value="" style="verticalAlign=bottom;html=1;ellipse;fillColor=strokeColor;fontFamily=Helvetica;fontSize=11;fontColor=default;" vertex="1" parent="1">
          <mxGeometry x="412" y="520" width="4" height="4" as="geometry" />
        </mxCell>
        <mxCell id="4KdWAY72Oj23wz-Gb6Jc-83" value="" style="edgeStyle=elbowEdgeStyle;html=1;endSize=12;endArrow=block;endFill=0;elbow=horizontal;rounded=0;labelBackgroundColor=default;fontFamily=Helvetica;fontSize=11;fontColor=default;shape=connector;entryX=0.5;entryY=1;entryDx=0;entryDy=0;" edge="1" source="4KdWAY72Oj23wz-Gb6Jc-82" parent="1" target="4KdWAY72Oj23wz-Gb6Jc-74">
          <mxGeometry x="1" relative="1" as="geometry">
            <mxPoint x="370" y="490" as="targetPoint" />
            <Array as="points">
              <mxPoint x="414" y="520" />
            </Array>
          </mxGeometry>
        </mxCell>
        <mxCell id="4KdWAY72Oj23wz-Gb6Jc-87" value="&lt;strong&gt;Fishing boat&lt;/strong&gt;" style="swimlane;fontStyle=1;align=center;verticalAlign=top;childLayout=stackLayout;horizontal=1;startSize=26;horizontalStack=0;resizeParent=1;resizeParentMax=0;resizeLast=0;collapsible=1;marginBottom=0;whiteSpace=wrap;html=1;" vertex="1" parent="1">
          <mxGeometry x="667" y="585" width="160" height="94" as="geometry" />
        </mxCell>
        <mxCell id="4KdWAY72Oj23wz-Gb6Jc-88" value="&lt;div&gt;+  &lt;strong&gt;type of fishing&lt;/strong&gt;&lt;br&gt;&lt;/div&gt;&lt;div&gt;&lt;br&gt;&lt;/div&gt;" style="text;strokeColor=none;fillColor=none;align=left;verticalAlign=top;spacingLeft=4;spacingRight=4;overflow=hidden;rotatable=0;points=[[0,0.5],[1,0.5]];portConstraint=eastwest;whiteSpace=wrap;html=1;" vertex="1" parent="4KdWAY72Oj23wz-Gb6Jc-87">
          <mxGeometry y="26" width="160" height="34" as="geometry" />
        </mxCell>
        <mxCell id="4KdWAY72Oj23wz-Gb6Jc-89" value="" style="line;strokeWidth=1;fillColor=none;align=left;verticalAlign=middle;spacingTop=-1;spacingLeft=3;spacingRight=3;rotatable=0;labelPosition=right;points=[];portConstraint=eastwest;strokeColor=inherit;" vertex="1" parent="4KdWAY72Oj23wz-Gb6Jc-87">
          <mxGeometry y="60" width="160" height="8" as="geometry" />
        </mxCell>
        <mxCell id="4KdWAY72Oj23wz-Gb6Jc-90" value="- no methods" style="text;strokeColor=none;fillColor=none;align=left;verticalAlign=top;spacingLeft=4;spacingRight=4;overflow=hidden;rotatable=0;points=[[0,0.5],[1,0.5]];portConstraint=eastwest;whiteSpace=wrap;html=1;" vertex="1" parent="4KdWAY72Oj23wz-Gb6Jc-87">
          <mxGeometry y="68" width="160" height="26" as="geometry" />
        </mxCell>
        <mxCell id="4KdWAY72Oj23wz-Gb6Jc-95" value="&lt;strong&gt;Bulk carrier&lt;/strong&gt;" style="swimlane;fontStyle=1;align=center;verticalAlign=top;childLayout=stackLayout;horizontal=1;startSize=26;horizontalStack=0;resizeParent=1;resizeParentMax=0;resizeLast=0;collapsible=1;marginBottom=0;whiteSpace=wrap;html=1;" vertex="1" parent="1">
          <mxGeometry x="230" y="584" width="160" height="94" as="geometry" />
        </mxCell>
        <mxCell id="4KdWAY72Oj23wz-Gb6Jc-96" value="&lt;div&gt;+ number of load &lt;strong&gt;hatches&lt;/strong&gt;&lt;/div&gt;&lt;div&gt;&lt;br&gt;&lt;/div&gt;" style="text;strokeColor=none;fillColor=none;align=left;verticalAlign=top;spacingLeft=4;spacingRight=4;overflow=hidden;rotatable=0;points=[[0,0.5],[1,0.5]];portConstraint=eastwest;whiteSpace=wrap;html=1;" vertex="1" parent="4KdWAY72Oj23wz-Gb6Jc-95">
          <mxGeometry y="26" width="160" height="34" as="geometry" />
        </mxCell>
        <mxCell id="4KdWAY72Oj23wz-Gb6Jc-97" value="" style="line;strokeWidth=1;fillColor=none;align=left;verticalAlign=middle;spacingTop=-1;spacingLeft=3;spacingRight=3;rotatable=0;labelPosition=right;points=[];portConstraint=eastwest;strokeColor=inherit;" vertex="1" parent="4KdWAY72Oj23wz-Gb6Jc-95">
          <mxGeometry y="60" width="160" height="8" as="geometry" />
        </mxCell>
        <mxCell id="4KdWAY72Oj23wz-Gb6Jc-98" value="- no methods" style="text;strokeColor=none;fillColor=none;align=left;verticalAlign=top;spacingLeft=4;spacingRight=4;overflow=hidden;rotatable=0;points=[[0,0.5],[1,0.5]];portConstraint=eastwest;whiteSpace=wrap;html=1;" vertex="1" parent="4KdWAY72Oj23wz-Gb6Jc-95">
          <mxGeometry y="68" width="160" height="26" as="geometry" />
        </mxCell>
        <mxCell id="4KdWAY72Oj23wz-Gb6Jc-99" value="&lt;strong&gt;Tanker&lt;/strong&gt;" style="swimlane;fontStyle=1;align=center;verticalAlign=top;childLayout=stackLayout;horizontal=1;startSize=26;horizontalStack=0;resizeParent=1;resizeParentMax=0;resizeLast=0;collapsible=1;marginBottom=0;whiteSpace=wrap;html=1;" vertex="1" parent="1">
          <mxGeometry x="440" y="584" width="160" height="104" as="geometry" />
        </mxCell>
        <mxCell id="4KdWAY72Oj23wz-Gb6Jc-100" value="&lt;div&gt;+ has &lt;strong&gt;double helmet&lt;/strong&gt; or not&lt;/div&gt;&lt;div&gt;+ its &lt;strong&gt;capacity&lt;/strong&gt; in tons.&lt;/div&gt;&lt;div&gt;&lt;br&gt;&lt;/div&gt;" style="text;strokeColor=none;fillColor=none;align=left;verticalAlign=top;spacingLeft=4;spacingRight=4;overflow=hidden;rotatable=0;points=[[0,0.5],[1,0.5]];portConstraint=eastwest;whiteSpace=wrap;html=1;" vertex="1" parent="4KdWAY72Oj23wz-Gb6Jc-99">
          <mxGeometry y="26" width="160" height="44" as="geometry" />
        </mxCell>
        <mxCell id="4KdWAY72Oj23wz-Gb6Jc-101" value="" style="line;strokeWidth=1;fillColor=none;align=left;verticalAlign=middle;spacingTop=-1;spacingLeft=3;spacingRight=3;rotatable=0;labelPosition=right;points=[];portConstraint=eastwest;strokeColor=inherit;" vertex="1" parent="4KdWAY72Oj23wz-Gb6Jc-99">
          <mxGeometry y="70" width="160" height="8" as="geometry" />
        </mxCell>
        <mxCell id="4KdWAY72Oj23wz-Gb6Jc-102" value="- no methods" style="text;strokeColor=none;fillColor=none;align=left;verticalAlign=top;spacingLeft=4;spacingRight=4;overflow=hidden;rotatable=0;points=[[0,0.5],[1,0.5]];portConstraint=eastwest;whiteSpace=wrap;html=1;" vertex="1" parent="4KdWAY72Oj23wz-Gb6Jc-99">
          <mxGeometry y="78" width="160" height="26" as="geometry" />
        </mxCell>
      </root>
    </mxGraphModel>
  </diagram>
</mxfile>
